HIERARCHY
ROOT Hips
{
	OFFSET 0.000000 100.481300 0.000000
	CHANNELS 6 Xposition Yposition Zposition Xrotation Yrotation Zrotation
	JOINT Spine
	{
		OFFSET -0.279200 12.230698 -2.892100
		CHANNELS 3 Xrotation Yrotation Zrotation
		JOINT Spine1
		{
			OFFSET -0.325700 14.269203 -3.374200
			CHANNELS 3 Xrotation Yrotation Zrotation
			JOINT Spine2
			{
				OFFSET -0.372300 16.307602 -0.352600
				CHANNELS 3 Xrotation Yrotation Zrotation
				JOINT Neck
				{
					OFFSET -0.418800 17.814194 8.416900
					CHANNELS 3 Xrotation Yrotation Zrotation
					JOINT Head
					{
						OFFSET 0.000000 7.031097 3.806800
						CHANNELS 3 Xrotation Yrotation Zrotation
						JOINT HeadTop_End
						{
							OFFSET 0.000000 24.646606 12.978600
							CHANNELS 3 Xrotation Yrotation Zrotation
							End Site
							{
								OFFSET 0.000000 27.854965 0.000000
							}
						}
					}
				}
				JOINT LeftShoulder
				{
					OFFSET 16.952999 14.495407 -7.737500
					CHANNELS 3 Xrotation Yrotation Zrotation
					JOINT LeftArm
					{
						OFFSET 9.308998 -2.777710 0.208600
						CHANNELS 3 Xrotation Yrotation Zrotation
						JOINT LeftForeArm
						{
							OFFSET 29.972298 0.000000 0.000000
							CHANNELS 3 Xrotation Yrotation Zrotation
							JOINT LeftHand
							{
								OFFSET 26.026505 0.000000 0.000000
								CHANNELS 3 Xrotation Yrotation Zrotation
								JOINT LeftHandThumb1
								{
									OFFSET 12.240501 -7.147949 9.207150
									CHANNELS 3 Xrotation Yrotation Zrotation
									JOINT LeftHandThumb2
									{
										OFFSET 4.138618 -2.389435 2.389433
										CHANNELS 3 Xrotation Yrotation Zrotation
										JOINT LeftHandThumb3
										{
											OFFSET 2.726913 -1.574387 1.574386
											CHANNELS 3 Xrotation Yrotation Zrotation
											JOINT LeftHandThumb4
											{
												OFFSET 3.941010 -2.275345 2.275342
												CHANNELS 3 Xrotation Yrotation Zrotation
												End Site
												{
													OFFSET -0.005798 5.087799 0.009903
												}
											}
										}
									}
								}
								JOINT LeftHandIndex1
								{
									OFFSET 24.424698 -1.985611 5.953459
									CHANNELS 3 Xrotation Yrotation Zrotation
									JOINT LeftHandIndex2
									{
										OFFSET 6.426697 0.000000 0.000000
										CHANNELS 3 Xrotation Yrotation Zrotation
										JOINT LeftHandIndex3
										{
											OFFSET 5.337898 0.000000 0.000000
											CHANNELS 3 Xrotation Yrotation Zrotation
											JOINT LeftHandIndex4
											{
												OFFSET 4.409401 0.000000 0.000000
												CHANNELS 3 Xrotation Yrotation Zrotation
												End Site
												{
													OFFSET 0.000000 4.409363 0.014373
												}
											}
										}
									}
								}
								JOINT LeftHandMiddle1
								{
									OFFSET 23.810104 0.000000 0.000000
									CHANNELS 3 Xrotation Yrotation Zrotation
									JOINT LeftHandMiddle2
									{
										OFFSET 7.176498 0.000000 0.000000
										CHANNELS 3 Xrotation Yrotation Zrotation
										JOINT LeftHandMiddle3
										{
											OFFSET 6.774902 0.000000 0.000000
											CHANNELS 3 Xrotation Yrotation Zrotation
											JOINT LeftHandMiddle4
											{
												OFFSET 5.403328 0.000000 0.000000
												CHANNELS 3 Xrotation Yrotation Zrotation
												End Site
												{
													OFFSET -0.027702 5.403244 0.017414
												}
											}
										}
									}
								}
								JOINT LeftHandRing1
								{
									OFFSET 22.908401 -0.839279 -6.020567
									CHANNELS 3 Xrotation Yrotation Zrotation
									JOINT LeftHandRing2
									{
										OFFSET 6.337502 0.000000 0.000000
										CHANNELS 3 Xrotation Yrotation Zrotation
										JOINT LeftHandRing3
										{
											OFFSET 5.779297 0.000000 0.000000
											CHANNELS 3 Xrotation Yrotation Zrotation
											JOINT LeftHandRing4
											{
												OFFSET 4.965698 0.000000 0.000000
												CHANNELS 3 Xrotation Yrotation Zrotation
												End Site
												{
													OFFSET 0.000000 4.965668 0.016186
												}
											}
										}
									}
								}
								JOINT LeftHandPinky1
								{
									OFFSET 20.037003 -1.530319 -10.950146
									CHANNELS 3 Xrotation Yrotation Zrotation
									JOINT LeftHandPinky2
									{
										OFFSET 5.254700 0.000000 0.000000
										CHANNELS 3 Xrotation Yrotation Zrotation
										JOINT LeftHandPinky3
										{
											OFFSET 4.810204 0.000000 0.000000
											CHANNELS 3 Xrotation Yrotation Zrotation
											JOINT LeftHandPinky4
											{
												OFFSET 3.647202 0.000000 0.000000
												CHANNELS 3 Xrotation Yrotation Zrotation
												End Site
												{
													OFFSET 0.000000 3.647186 0.011889
												}
											}
										}
									}
								}
							}
						}
					}
				}
				JOINT RightShoulder
				{
					OFFSET -15.141001 14.495407 -7.737500
					CHANNELS 3 Xrotation Yrotation Zrotation
					JOINT RightArm
					{
						OFFSET -9.308998 -2.777710 0.208500
						CHANNELS 3 Xrotation Yrotation Zrotation
						JOINT RightForeArm
						{
							OFFSET -29.972300 0.000000 0.000000
							CHANNELS 3 Xrotation Yrotation Zrotation
							JOINT RightHand
							{
								OFFSET -26.026505 0.000000 0.000000
								CHANNELS 3 Xrotation Yrotation Zrotation
								JOINT RightHandThumb1
								{
									OFFSET -12.240601 -7.148026 9.207092
									CHANNELS 3 Xrotation Yrotation Zrotation
									JOINT RightHandThumb2
									{
										OFFSET -4.138618 -2.389435 2.389433
										CHANNELS 3 Xrotation Yrotation Zrotation
										JOINT RightHandThumb3
										{
											OFFSET -2.726974 -1.574417 1.574421
											CHANNELS 3 Xrotation Yrotation Zrotation
											JOINT RightHandThumb4
											{
												OFFSET -3.941010 -2.275345 2.275343
												CHANNELS 3 Xrotation Yrotation Zrotation
												End Site
												{
													OFFSET 0.005814 5.087799 0.009927
												}
											}
										}
									}
								}
								JOINT RightHandIndex1
								{
									OFFSET -24.424698 -1.985657 5.953444
									CHANNELS 3 Xrotation Yrotation Zrotation
									JOINT RightHandIndex2
									{
										OFFSET -6.426697 0.000000 0.000000
										CHANNELS 3 Xrotation Yrotation Zrotation
										JOINT RightHandIndex3
										{
											OFFSET -5.337898 0.000000 0.000000
											CHANNELS 3 Xrotation Yrotation Zrotation
											JOINT RightHandIndex4
											{
												OFFSET -4.409401 0.000000 0.000000
												CHANNELS 3 Xrotation Yrotation Zrotation
												End Site
												{
													OFFSET 0.000000 4.409363 0.014408
												}
											}
										}
									}
								}
								JOINT RightHandMiddle1
								{
									OFFSET -23.810097 0.000000 0.000000
									CHANNELS 3 Xrotation Yrotation Zrotation
									JOINT RightHandMiddle2
									{
										OFFSET -7.176498 0.000000 0.000000
										CHANNELS 3 Xrotation Yrotation Zrotation
										JOINT RightHandMiddle3
										{
											OFFSET -6.774902 0.000000 0.000000
											CHANNELS 3 Xrotation Yrotation Zrotation
											JOINT RightHandMiddle4
											{
												OFFSET -5.403328 0.000000 0.000000
												CHANNELS 3 Xrotation Yrotation Zrotation
												End Site
												{
													OFFSET 0.027702 5.403244 0.017457
												}
											}
										}
									}
								}
								JOINT RightHandRing1
								{
									OFFSET -22.908302 -0.839325 -6.020576
									CHANNELS 3 Xrotation Yrotation Zrotation
									JOINT RightHandRing2
									{
										OFFSET -6.337502 0.000000 0.000000
										CHANNELS 3 Xrotation Yrotation Zrotation
										JOINT RightHandRing3
										{
											OFFSET -5.779297 0.000000 0.000000
											CHANNELS 3 Xrotation Yrotation Zrotation
											JOINT RightHandRing4
											{
												OFFSET -4.965698 0.000000 0.000000
												CHANNELS 3 Xrotation Yrotation Zrotation
												End Site
												{
													OFFSET 0.000000 4.965668 0.016226
												}
											}
										}
									}
								}
								JOINT RightHandPinky1
								{
									OFFSET -20.037003 -1.530334 -10.950259
									CHANNELS 3 Xrotation Yrotation Zrotation
									JOINT RightHandPinky2
									{
										OFFSET -5.254700 0.000000 0.000000
										CHANNELS 3 Xrotation Yrotation Zrotation
										JOINT RightHandPinky3
										{
											OFFSET -4.810204 0.000000 0.000000
											CHANNELS 3 Xrotation Yrotation Zrotation
											JOINT RightHandPinky4
											{
												OFFSET -3.647202 0.000000 0.000000
												CHANNELS 3 Xrotation Yrotation Zrotation
												End Site
												{
													OFFSET 0.000000 3.647186 0.011917
												}
											}
										}
									}
								}
							}
						}
					}
				}
			}
		}
	}
	JOINT LeftUpLeg
	{
		OFFSET 15.427100 -6.655098 0.678600
		CHANNELS 3 Xrotation Yrotation Zrotation
		JOINT LeftLeg
		{
			OFFSET 4.081073 -39.591068 13.024000
			CHANNELS 3 Xrotation Yrotation Zrotation
			JOINT LeftFoot
			{
				OFFSET -4.081074 -37.707932 -15.979700
				CHANNELS 3 Xrotation Yrotation Zrotation
				JOINT LeftToeBase
				{
					OFFSET 5.346399 -15.068900 20.645000
					CHANNELS 3 Xrotation Yrotation Zrotation
					JOINT LeftToe_End
					{
						OFFSET 2.754700 0.931300 11.300900
						CHANNELS 3 Xrotation Yrotation Zrotation
						End Site
						{
							OFFSET 0.000000 11.669021 0.000000
						}
					}
				}
			}
		}
	}
	JOINT RightUpLeg
	{
		OFFSET -15.569500 -6.655098 0.678600
		CHANNELS 3 Xrotation Yrotation Zrotation
		JOINT RightLeg
		{
			OFFSET -4.081825 -39.591045 13.023800
			CHANNELS 3 Xrotation Yrotation Zrotation
			JOINT RightFoot
			{
				OFFSET 4.081824 -37.707954 -15.979600
				CHANNELS 3 Xrotation Yrotation Zrotation
				JOINT RightToeBase
				{
					OFFSET -5.346400 -15.068900 20.645000
					CHANNELS 3 Xrotation Yrotation Zrotation
					JOINT RightToe_End
					{
						OFFSET -2.754700 0.931300 11.300900
						CHANNELS 3 Xrotation Yrotation Zrotation
						End Site
						{
							OFFSET 0.000000 11.669021 0.000000
						}
					}
				}
			}
		}
	}
}
MOTION
Frames: 6
Frame Time: 0.033333
-0.180336 92.699287 -0.755463 -2.478729 -3.661856 -0.976874 2.294602 1.986044 1.967227 4.686011 4.256446 -0.034702 4.653897 4.291590 -0.037637 2.766056 -0.863799 -1.739659 -20.791340 -5.976825 0.702914 -0.000001 0.000000 0.000000 0.490271 5.741689 -11.807875 -16.165577 -19.541386 -67.272726 -0.000005 -19.871718 0.000009 46.413324 -2.292296 -11.846214 1.246234 31.161270 6.883273 6.980558 11.602032 1.186887 0.935798 3.379394 2.988491 -0.000001 0.000002 0.000001 0.671590 2.970896 -25.470733 0.277229 1.937820 -16.281672 0.069634 0.978753 -8.138494 0.000003 -0.000001 0.000001 0.670762 2.969158 -25.454706 0.277764 1.939657 -16.297687 0.069641 0.978755 -8.138506 0.000001 0.000001 0.000000 0.671590 2.970896 -25.470733 0.277230 1.937821 -16.281672 0.069635 0.978753 -8.138492 0.000002 -0.000000 -0.000002 2.409282 6.636964 -25.105899 0.276451 -2.118939 -16.772204 0.069631 0.978739 -8.138505 0.000003 -0.000001 -0.000001 0.055200 -6.353140 11.860229 -15.411461 9.187361 58.330232 -0.000019 27.975922 0.000052 42.371748 -3.968491 27.952291 -15.605625 -22.540440 -13.703613 1.123835 -17.035690 -4.930289 -2.809910 -4.075922 -4.276588 -0.000004 -0.000001 -0.000003 0.569595 -2.760867 23.309914 0.505525 -2.607323 21.941967 0.127476 -1.327934 10.965230 0.000003 0.000001 -0.000004 0.569596 -2.760867 23.309909 0.505524 -2.607325 21.941964 0.127474 -1.327948 10.965226 -0.000001 0.000003 -0.000004 0.569598 -2.760873 23.309909 0.505525 -2.607320 21.941969 0.127468 -1.327934 10.965234 0.000000 -0.000001 -0.000001 0.569595 -2.760867 23.309909 0.505522 -2.607326 21.941964 0.127470 -1.327933 10.965229 -0.000001 0.000000 -0.000001 -5.841441 7.881503 13.784646 21.936833 -1.769943 -1.172609 -13.454409 2.621448 -6.169317 -0.601884 0.000004 -0.000000 -0.000000 0.000000 -0.000000 -9.335993 -6.777072 -9.321187 21.222684 1.467682 -1.208700 -9.192996 -1.893932 9.508686 -0.007941 0.000002 -0.000002 0.000000 -0.000000 0.000000 
-0.111325 92.542061 -0.699968 -2.436679 -3.508256 -1.107411 2.232003 1.972500 2.076679 4.559573 4.242721 0.082853 4.526295 4.278334 0.079931 2.703992 -0.889836 -1.828653 -20.823275 -6.122891 0.604209 0.000000 -0.000000 0.000000 0.491613 5.727353 -11.802406 -15.759403 -20.292470 -66.923307 0.000002 -20.137351 -0.000001 45.222297 -2.106295 -12.619439 2.187888 26.884849 5.712155 6.980548 11.602031 1.186886 0.935803 3.379395 2.988486 0.000001 0.000001 0.000000 0.568463 2.744220 -23.402269 0.277233 1.937819 -16.281675 0.069632 0.978753 -8.138497 0.000001 0.000000 -0.000001 0.567693 2.742443 -23.386257 0.277765 1.939656 -16.297685 0.069632 0.978757 -8.138510 0.000001 0.000002 0.000002 0.568463 2.744220 -23.402269 0.277234 1.937821 -16.281673 0.069632 0.978753 -8.138497 -0.000000 0.000000 0.000002 2.171247 6.470587 -23.020673 0.276452 -2.118939 -16.772202 0.069632 0.978740 -8.138507 0.000004 -0.000001 -0.000000 0.068519 -6.287357 11.894454 -14.715950 9.175620 57.956641 0.000008 28.494822 -0.000016 41.816296 -3.799249 29.271295 -15.384685 -19.833164 -10.809902 1.123827 -17.035687 -4.930284 -2.809920 -4.075913 -4.276585 0.000001 0.000000 -0.000001 0.439006 -2.435871 20.430073 0.505516 -2.607323 21.941966 0.127473 -1.327936 10.965236 0.000004 0.000000 -0.000003 0.439007 -2.435870 20.430073 0.505522 -2.607325 21.941967 0.127474 -1.327949 10.965234 -0.000001 -0.000000 -0.000001 0.439006 -2.435867 20.430076 0.505520 -2.607321 21.941969 0.127469 -1.327935 10.965232 -0.000001 0.000001 0.000001 0.439006 -2.435871 20.430073 0.505521 -2.607328 21.941967 0.127468 -1.327935 10.965234 -0.000001 0.000001 0.000003 -6.010264 7.827337 14.004785 22.258907 -1.800560 -1.124439 -13.660087 2.674542 -6.580908 -0.454088 0.000007 -0.000000 0.000000 -0.000000 -0.000000 -9.361947 -6.845724 -9.340770 21.465032 1.564674 -1.030103 -9.430369 -1.987494 9.455373 -0.008189 0.000000 0.000000 -0.000000 0.000000 0.000000 
-0.093648 92.383659 -0.497146 -1.685202 -3.154596 -1.431090 1.894802 1.950894 2.172607 3.876829 4.172770 0.338935 3.843909 4.203371 0.336522 2.304734 -0.889185 -2.008503 -23.225770 -5.895508 -0.020692 -0.000001 -0.000000 -0.000000 0.499656 5.686521 -11.790582 -14.468571 -22.692545 -65.632818 -0.000005 -21.330044 -0.000010 44.469514 -3.604877 -14.628479 3.054053 21.934801 4.641134 6.980537 11.602042 1.186901 0.935794 3.379403 2.988489 0.000000 0.000001 0.000001 0.460436 2.480001 -21.032304 0.277235 1.937819 -16.281673 0.069633 0.978753 -8.138493 0.000000 0.000000 -0.000000 0.459744 2.478213 -21.016289 0.277767 1.939657 -16.297685 0.069637 0.978756 -8.138508 -0.000002 -0.000001 0.000000 0.460436 2.480001 -21.032301 0.277235 1.937820 -16.281672 0.069630 0.978753 -8.138494 0.000000 -0.000000 -0.000001 1.906232 6.269455 -20.632248 0.276450 -2.118939 -16.772202 0.069631 0.978739 -8.138508 0.000001 -0.000002 0.000001 0.107436 -6.113517 11.920335 -13.044004 9.147975 56.878971 -0.000000 29.342814 -0.000008 39.657885 -3.405866 31.427732 -15.238173 -16.700485 -7.565392 1.123832 -17.035687 -4.930279 -2.809921 -4.075920 -4.276582 -0.000004 0.000001 0.000004 0.309678 -2.055852 17.130837 0.505521 -2.607323 21.941967 0.127468 -1.327937 10.965231 0.000001 0.000002 -0.000005 0.309679 -2.055852 17.130833 0.505524 -2.607325 21.941969 0.127471 -1.327948 10.965225 0.000004 0.000001 -0.000002 0.309675 -2.055853 17.130830 0.505520 -2.607320 21.941969 0.127471 -1.327935 10.965232 0.000001 -0.000002 0.000001 0.309678 -2.055852 17.130833 0.505524 -2.607327 21.941966 0.127474 -1.327935 10.965231 0.000004 -0.000001 0.000000 -6.946710 7.814055 14.670546 22.552865 -1.906929 -1.160496 -13.814056 2.763002 -7.337776 -0.175852 -0.000002 -0.000000 -0.000000 -0.000001 -0.000000 -9.808738 -6.702702 -9.013613 21.558261 1.727834 -0.753263 -9.777169 -2.159314 9.274306 -0.008387 -0.000001 0.000000 0.000000 0.000001 0.000000 
-0.243855 92.315910 0.127613 -1.319363 -2.393617 -1.839507 1.374942 1.850924 2.313907 2.815477 3.981777 0.795112 2.784079 4.004213 0.793698 1.445783 -0.808918 -2.309400 -30.518962 -4.861003 -1.142183 -0.000001 -0.000000 -0.000000 0.508384 5.637446 -11.769592 -11.699687 -26.923569 -62.884425 -0.000008 -23.833076 -0.000025 44.426815 -7.757436 -16.976582 3.748682 16.848977 3.801606 6.980532 11.602037 1.186907 0.935806 3.379407 2.988502 -0.000001 -0.000002 0.000000 0.361725 2.206450 -18.618338 0.277236 1.937821 -16.281675 0.069635 0.978753 -8.138491 0.000000 0.000000 -0.000002 0.361125 2.204612 -18.602338 0.277768 1.939657 -16.297689 0.069637 0.978757 -8.138509 0.000002 0.000001 0.000001 0.361725 2.206450 -18.618338 0.277235 1.937822 -16.281677 0.069632 0.978754 -8.138494 -0.000000 -0.000000 0.000002 1.645183 6.053423 -18.200410 0.276453 -2.118940 -16.772206 0.069634 0.978742 -8.138506 -0.000001 0.000000 -0.000001 0.147904 -5.935402 11.937204 -10.510109 9.479989 54.912214 0.000008 30.512487 -0.000022 35.373263 -3.121698 33.405895 -15.200772 -13.478964 -4.326605 1.123840 -17.035685 -4.930280 -2.809908 -4.075921 -4.276584 0.000001 0.000001 0.000002 0.200654 -1.661606 13.770615 0.505522 -2.607326 21.941966 0.127475 -1.327938 10.965234 0.000002 0.000003 0.000002 0.200655 -1.661605 13.770614 0.505521 -2.607325 21.941966 0.127476 -1.327947 10.965226 0.000000 -0.000001 -0.000001 0.200654 -1.661605 13.770613 0.505522 -2.607320 21.941972 0.127470 -1.327938 10.965230 0.000002 -0.000001 -0.000000 0.200654 -1.661606 13.770614 0.505523 -2.607328 21.941966 0.127471 -1.327935 10.965231 0.000001 -0.000001 -0.000001 -7.128701 8.193394 15.724267 22.298341 -2.123477 -1.410085 -13.826002 2.883680 -8.347667 -0.006924 -0.000002 -0.000000 0.000000 0.000001 -0.000000 -9.206890 -6.704344 -8.461901 21.408583 1.851873 -0.434392 -10.542347 -2.329411 8.802961 -0.001110 -0.000004 -0.000006 -0.000000 -0.000000 -0.000000 
-0.592320 92.134109 1.165484 -2.224426 -1.110404 -1.777451 0.865506 1.562766 2.547956 1.774116 3.522291 1.079958 1.742705 3.538307 1.079738 0.320197 -0.744461 -2.644775 -41.571690 -3.307632 -2.566453 -0.000001 0.000000 0.000000 0.520979 5.560927 -11.731160 -7.314662 -32.195019 -57.823521 -0.000012 -27.120183 -0.000027 41.376289 -10.054955 -17.469582 4.249101 12.181527 3.225607 6.980543 11.602023 1.186897 0.935801 3.379409 2.988492 0.000001 0.000001 -0.000001 0.281836 1.953531 -16.417449 0.277238 1.937819 -16.281675 0.069638 0.978755 -8.138491 0.000001 -0.000000 -0.000001 0.281296 1.951661 -16.401437 0.277768 1.939656 -16.297683 0.069638 0.978757 -8.138509 -0.000002 0.000000 -0.000000 0.281836 1.953531 -16.417449 0.277235 1.937821 -16.281673 0.069635 0.978753 -8.138491 0.000002 -0.000000 0.000002 1.415412 5.846937 -15.984169 0.276451 -2.118939 -16.772202 0.069635 0.978741 -8.138506 -0.000001 -0.000000 0.000000 0.152290 -5.912878 11.937827 -7.679420 10.521070 52.365920 -0.000007 32.096435 0.000013 29.690966 -2.745835 34.182081 -15.261644 -10.517617 -1.421609 1.123818 -17.035685 -4.930285 -2.809910 -4.075924 -4.276607 -0.000001 0.000000 0.000001 0.121546 -1.297039 10.707072 0.505522 -2.607324 21.941967 0.127468 -1.327935 10.965233 0.000001 0.000000 -0.000001 0.121547 -1.297039 10.707071 0.505524 -2.607325 21.941966 0.127474 -1.327947 10.965232 -0.000001 0.000003 0.000002 0.121543 -1.297043 10.707074 0.505519 -2.607319 21.941974 0.127474 -1.327936 10.965229 -0.000001 0.000000 -0.000003 0.121546 -1.297039 10.707071 0.505521 -2.607328 21.941964 0.127470 -1.327937 10.965234 0.000001 -0.000002 -0.000001 -5.685809 8.723146 16.386099 21.916318 -2.332837 -1.716883 -13.991362 3.021567 -9.088689 -0.017291 -0.000001 0.000002 -0.000000 0.000001 0.000000 -7.188869 -7.140931 -8.279898 22.119289 1.730691 -0.279343 -12.354241 -2.372681 7.739553 -0.052500 -0.000004 0.000000 0.000000 0.000000 0.000000 
-1.090610 91.624352 2.428710 -4.011324 0.561245 -1.652114 0.372498 1.153454 2.695667 0.763297 2.902820 1.103250 0.734069 2.910503 1.104194 -1.448425 -0.615078 -2.945974 -49.200001 -2.230794 -2.804128 0.000002 -0.000000 0.000000 0.544931 5.421315 -11.665355 -3.498750 -36.549128 -51.331430 -0.000006 -29.367682 -0.000023 35.528957 -9.705654 -17.234569 4.569216 8.494115 2.884551 6.980560 11.602036 1.186898 0.935795 3.379395 2.988486 -0.000001 -0.000002 0.000001 0.225861 1.752489 -14.686399 0.277235 1.937819 -16.281675 0.069634 0.978753 -8.138492 -0.000001 -0.000001 -0.000000 0.225373 1.750620 -14.670410 0.277767 1.939656 -16.297683 0.069634 0.978756 -8.138509 -0.000002 0.000001 0.000001 0.225861 1.752489 -14.686396 0.277234 1.937820 -16.281673 0.069633 0.978754 -8.138494 -0.000000 -0.000001 0.000000 1.240444 5.678376 -14.241762 0.276453 -2.118940 -16.772202 0.069633 0.978740 -8.138505 -0.000000 0.000001 -0.000000 0.127457 -6.034818 11.906446 -5.163963 12.175209 49.711674 0.000008 34.378948 -0.000022 24.306622 -1.661283 33.590488 -15.371991 -8.173908 0.836947 1.123835 -17.035697 -4.930285 -2.809921 -4.075926 -4.276607 -0.000004 0.000000 -0.000001 0.073088 -1.007554 8.297511 0.505516 -2.607324 21.941967 0.127473 -1.327934 10.965235 0.000002 0.000002 0.000000 0.073089 -1.007554 8.297509 0.505523 -2.607325 21.941964 0.127472 -1.327951 10.965229 -0.000000 0.000002 0.000001 0.073088 -1.007557 8.297509 0.505519 -2.607322 21.941974 0.127471 -1.327936 10.965236 0.000001 0.000000 0.000001 0.073088 -1.007554 8.297509 0.505523 -2.607327 21.941964 0.127473 -1.327934 10.965236 0.000001 0.000000 0.000000 -3.804030 9.408411 17.325101 22.594493 -2.434221 -2.078527 -14.729187 3.175051 -9.157544 -0.021976 -0.000000 0.000002 0.000000 -0.000000 0.000000 -4.296334 -7.411733 -7.684615 23.880809 1.330185 -0.390848 -15.184684 -2.372748 5.903442 -0.576740 -0.000000 -0.000000 0.000000 0.000000 0.000000 
